<svg width="40" height="40" viewBox="0 0 40 40" fill="none" xmlns="http://www.w3.org/2000/svg">
<path d="M16.8708 15.7201V12.5951C16.8708 12.0978 17.2005 11.6209 17.7874 11.2693C18.3742 10.9176 19.1701 10.7201 20 10.7201C20.8299 10.7201 21.6259 10.9176 22.2127 11.2693C22.7995 11.6209 23.1292 12.0978 23.1292 12.5951V15.7201" stroke="#1A1B22" stroke-linecap="round" stroke-linejoin="round"/>
<path d="M14.0864 15.7201H25.9136C26.2144 15.7201 26.5117 15.7851 26.785 15.9107C27.0583 16.0363 27.3012 16.2195 27.4971 16.4477C27.6929 16.676 27.8371 16.9439 27.9197 17.2331C28.0024 17.5224 28.0215 17.826 27.9758 18.1233L26.6667 26.6263C26.5531 27.3653 26.1786 28.0391 25.6111 28.5259C25.0436 29.0126 24.3206 29.2801 23.573 29.2799H16.426C15.6785 29.2798 14.9557 29.0123 14.3885 28.5255C13.8212 28.0388 13.4469 27.3651 13.3333 26.6263L12.0242 18.1233C11.9785 17.826 11.9976 17.5224 12.0803 17.2331C12.1629 16.9439 12.3071 16.676 12.5029 16.4477C12.6988 16.2195 12.9417 16.0363 13.215 15.9107C13.4883 15.7851 13.7856 15.7201 14.0864 15.7201Z" stroke="#1A1B22" stroke-linecap="round" stroke-linejoin="round"/>
</svg>
