<svg width="68" height="12" viewBox="0 0 68 12" fill="none" xmlns="http://www.w3.org/2000/svg">
<g clip-path="url(#clip0_111_25905)">
<path d="M3.15758 11.073L6.0101 9.00081L8.86263 11.073C9.44395 11.5008 10.1334 11.1131 9.86305 10.3377L8.75448 7.03554L11.6611 4.96331C12.2559 4.5355 12.0261 3.80019 11.2961 3.80019H7.69999L6.63198 0.511371C6.40216 -0.170457 5.60453 -0.170457 5.38823 0.511371L4.3067 3.80019H0.697102C-0.0194102 3.80019 -0.262754 4.5355 0.345605 4.96331L3.26573 7.03554L2.14364 10.3377C1.87326 11.0998 2.56274 11.5008 3.15758 11.073Z" fill="#FEEF0D"/>
</g>
<g clip-path="url(#clip1_111_25905)">
<path d="M17.1576 11.073L20.0101 9.00081L22.8626 11.073C23.444 11.5008 24.1334 11.1131 23.863 10.3377L22.7545 7.03554L25.6611 4.96331C26.2559 4.5355 26.0261 3.80019 25.2961 3.80019H21.7L20.632 0.511371C20.4022 -0.170457 19.6045 -0.170457 19.3882 0.511371L18.3067 3.80019H14.6971C13.9806 3.80019 13.7372 4.5355 14.3456 4.96331L17.2657 7.03554L16.1436 10.3377C15.8733 11.0998 16.5627 11.5008 17.1576 11.073Z" fill="#FEEF0D"/>
</g>
<g clip-path="url(#clip2_111_25905)">
<path d="M31.1576 11.073L34.0101 9.00081L36.8626 11.073C37.444 11.5008 38.1334 11.1131 37.863 10.3377L36.7545 7.03554L39.6611 4.96331C40.2559 4.5355 40.0261 3.80019 39.2961 3.80019H35.7L34.632 0.511371C34.4022 -0.170457 33.6045 -0.170457 33.3882 0.511371L32.3067 3.80019H28.6971C27.9806 3.80019 27.7372 4.5355 28.3456 4.96331L31.2657 7.03554L30.1436 10.3377C29.8733 11.0998 30.5627 11.5008 31.1576 11.073Z" fill="#FEEF0D"/>
</g>
<g clip-path="url(#clip3_111_25905)">
<path d="M45.1576 11.073L48.0101 9.00081L50.8626 11.073C51.444 11.5008 52.1334 11.1131 51.863 10.3377L50.7545 7.03554L53.6611 4.96331C54.2559 4.5355 54.0261 3.80019 53.2961 3.80019H49.7L48.632 0.511371C48.4022 -0.170457 47.6045 -0.170457 47.3882 0.511371L46.3067 3.80019H42.6971C41.9806 3.80019 41.7372 4.5355 42.3456 4.96331L45.2657 7.03554L44.1436 10.3377C43.8733 11.0998 44.5627 11.5008 45.1576 11.073Z" fill="#FEEF0D"/>
</g>
<g clip-path="url(#clip4_111_25905)">
<path d="M59.1576 11.073L62.0101 9.00081L64.8626 11.073C65.444 11.5008 66.1334 11.1131 65.863 10.3377L64.7545 7.03554L67.6611 4.96331C68.2559 4.5355 68.0261 3.80019 67.2961 3.80019H63.7L62.632 0.511371C62.4022 -0.170457 61.6045 -0.170457 61.3882 0.511371L60.3067 3.80019H56.6971C55.9806 3.80019 55.7372 4.5355 56.3456 4.96331L59.2657 7.03554L58.1436 10.3377C57.8733 11.0998 58.5627 11.5008 59.1576 11.073Z" fill="#FEEF0D"/>
</g>
<defs>
<clipPath id="clip0_111_25905">
<rect width="12" height="12" fill="white"/>
</clipPath>
<clipPath id="clip1_111_25905">
<rect width="12" height="12" fill="white" transform="translate(14)"/>
</clipPath>
<clipPath id="clip2_111_25905">
<rect width="12" height="12" fill="white" transform="translate(28)"/>
</clipPath>
<clipPath id="clip3_111_25905">
<rect width="12" height="12" fill="white" transform="translate(42)"/>
</clipPath>
<clipPath id="clip4_111_25905">
<rect width="12" height="12" fill="white" transform="translate(56)"/>
</clipPath>
</defs>
</svg>
