<svg width="40" height="40" viewBox="0 0 40 40" fill="none" xmlns="http://www.w3.org/2000/svg">
<path d="M16.8708 16V12.875C16.8708 12.3777 17.2005 11.9008 17.7874 11.5492C18.3742 11.1975 19.1701 11 20 11C20.8299 11 21.6259 11.1975 22.2127 11.5492C22.7995 11.9008 23.1292 12.3777 23.1292 12.875V16" stroke="#1A1B22" stroke-linecap="round" stroke-linejoin="round"/>
<path d="M14.0864 16H25.9136C26.2144 16 26.5117 16.065 26.785 16.1906C27.0583 16.3162 27.3012 16.4994 27.4971 16.7276C27.6929 16.9559 27.8371 17.2238 27.9197 17.513C28.0024 17.8023 28.0215 18.1059 27.9758 18.4032L26.6667 26.9062C26.5531 27.6452 26.1786 28.319 25.6111 28.8058C25.0436 29.2925 24.3206 29.56 23.573 29.5598H16.426C15.6785 29.5597 14.9557 29.2922 14.3885 28.8054C13.8212 28.3187 13.4469 27.645 13.3333 26.9062L12.0242 18.4032C11.9785 18.1059 11.9976 17.8023 12.0803 17.513C12.1629 17.2238 12.3071 16.9559 12.5029 16.7276C12.6988 16.4994 12.9417 16.3162 13.215 16.1906C13.4883 16.065 13.7856 16 14.0864 16Z" stroke="#1A1B22" stroke-linecap="round" stroke-linejoin="round"/>
<path d="M17.5 20.4497L22.4497 25.3995" stroke="#1A1B22" stroke-linecap="round"/>
<path d="M17.5 25.4497L22.4497 20.5" stroke="#1A1B22" stroke-linecap="round"/>
</svg>
