<svg width="24" height="24" viewBox="0 0 24 24" fill="none" xmlns="http://www.w3.org/2000/svg">
<path d="M7 11.7959C7 12.1035 7.11426 12.3672 7.36035 12.5957L14.1982 19.293C14.3916 19.4863 14.6377 19.5918 14.9277 19.5918C15.5078 19.5918 15.9736 19.1348 15.9736 18.5459C15.9736 18.2559 15.8506 18.001 15.6572 17.7988L9.49609 11.7959L15.6572 5.79297C15.8506 5.59082 15.9736 5.32715 15.9736 5.0459C15.9736 4.45703 15.5078 4 14.9277 4C14.6377 4 14.3916 4.10547 14.1982 4.29883L7.36035 10.9873C7.11426 11.2246 7 11.4883 7 11.7959Z" fill="#1A1B22"/>
</svg>
