<svg width="28" height="28" viewBox="0 0 28 28" fill="none" xmlns="http://www.w3.org/2000/svg">
<g clip-path="url(#clip0_17_4860)">
<rect width="28" height="28" rx="14" fill="white"/>
<path d="M13.9932 28C21.6665 28 28 21.6634 28 14C28 6.33656 21.653 0 13.9797 0C6.31996 0 0 6.33656 0 14C0 21.6634 6.33349 28 13.9932 28ZM13.9797 16.207C11.3272 16.1934 9.27018 13.9729 9.27018 11.0348C9.24311 8.27273 11.3407 5.97099 13.9797 5.97099C16.6187 5.97099 18.6892 8.27273 18.6892 11.0348C18.6892 13.9729 16.6322 16.234 13.9797 16.207ZM13.9797 25.6847C10.9483 25.6847 7.7274 24.4255 5.68391 22.2321C7.24021 19.9033 10.3258 18.5493 13.9797 18.5493C17.593 18.5493 20.7057 19.8762 22.2755 22.2321C20.232 24.4255 17.0111 25.6847 13.9797 25.6847Z" fill="#625C5C"/>
</g>
<defs>
<clipPath id="clip0_17_4860">
<rect width="28" height="28" rx="14" fill="white"/>
</clipPath>
</defs>
</svg>
