<svg width="30" height="30" viewBox="0 0 30 30" fill="none" xmlns="http://www.w3.org/2000/svg">
<g clip-path="url(#clip0_5298_4254)">
<path d="M11.8708 11V7.875C11.8708 7.37772 12.2005 6.90081 12.7874 6.54917C13.3742 6.19754 14.1701 6 15 6C15.8299 6 16.6259 6.19754 17.2127 6.54917C17.7995 6.90081 18.1292 7.37772 18.1292 7.875V11" stroke="#1A1B22" stroke-linecap="round" stroke-linejoin="round"/>
<path d="M9.08637 11H20.9136C21.2144 11 21.5117 11.065 21.785 11.1906C22.0583 11.3162 22.3012 11.4994 22.4971 11.7276C22.6929 11.9559 22.8371 12.2238 22.9197 12.513C23.0024 12.8023 23.0215 13.1059 22.9758 13.4032L21.6667 21.9062C21.5531 22.6452 21.1786 23.319 20.6111 23.8058C20.0436 24.2925 19.3206 24.56 18.573 24.5598H11.426C10.6785 24.5597 9.95574 24.2922 9.38847 23.8054C8.8212 23.3187 8.44689 22.645 8.33328 21.9062L7.02424 13.4032C6.97852 13.1059 6.99763 12.8023 7.08026 12.513C7.16289 12.2238 7.30708 11.9559 7.50295 11.7276C7.69882 11.4994 7.94173 11.3162 8.21504 11.1906C8.48835 11.065 8.78559 11 9.08637 11Z" fill="#1A1B22"/>
</g>
<defs>
<clipPath id="clip0_5298_4254">
<rect width="30" height="30" fill="white"/>
</clipPath>
</defs>
</svg>
