<svg width="30" height="30" viewBox="0 0 30 30" fill="none" xmlns="http://www.w3.org/2000/svg">
<path d="M14.9947 26C21.0237 26 26 21.0213 26 15C26 8.97872 21.0131 4 14.9841 4C8.96568 4 4 8.97872 4 15C4 21.0213 8.97632 26 14.9947 26ZM14.9841 16.734C12.9 16.7234 11.2837 14.9787 11.2837 12.6702C11.2624 10.5 12.9106 8.69149 14.9841 8.69149C17.0575 8.69149 18.6844 10.5 18.6844 12.6702C18.6844 14.9787 17.0681 16.7553 14.9841 16.734ZM14.9841 24.1809C12.6022 24.1809 10.0715 23.1915 8.46593 21.4681C9.68874 19.6383 12.1131 18.5745 14.9841 18.5745C17.8231 18.5745 20.2687 19.617 21.5022 21.4681C19.8966 23.1915 17.3659 24.1809 14.9841 24.1809Z" fill="#0A84FF"/>
</svg>
