<svg width="40" height="40" viewBox="0 0 40 40" fill="none" xmlns="http://www.w3.org/2000/svg">
<path d="M32.468 9.44896L33.4096 8.45705C33.8868 7.95482 33.9244 7.26425 33.4473 6.78713L33.1209 6.44812C32.694 6.02123 31.9783 6.08401 31.5137 6.54857L30.5344 7.50281L32.468 9.44896ZM17.6019 22.8083L20.1758 21.7285L31.5514 10.353L29.6178 8.43194L18.2422 19.8201L17.1122 22.3061C16.9867 22.5949 17.3131 22.9213 17.6019 22.8083ZM12.8307 31.2333H27.4582C29.8689 31.2333 31.2877 29.827 31.2877 27.1401V13.8812L28.7766 16.3798V26.9141C28.7766 28.1194 28.1362 28.7221 27.295 28.7221H12.9939C11.8388 28.7221 11.211 28.1194 11.211 26.9141V12.9646C11.211 11.7592 11.8388 11.1565 12.9939 11.1565H23.6538L26.1524 8.64539H12.8307C10.1186 8.64539 8.69983 10.0516 8.69983 12.7386V27.1401C8.69983 29.827 10.1186 31.2333 12.8307 31.2333Z" fill="#1A1B22"/>
</svg>
