<svg width="18" height="20" viewBox="0 0 18 20" fill="none" xmlns="http://www.w3.org/2000/svg">
<g id="Group 1">
<path id="Vector" d="M5.87085 5.72021V2.59521C5.87085 2.09793 6.20053 1.62102 6.78737 1.26939C7.3742 0.917759 8.17012 0.720215 9.00003 0.720215C9.82994 0.720215 10.6259 0.917759 11.2127 1.26939C11.7995 1.62102 12.1292 2.09793 12.1292 2.59521V5.72021" stroke="#1A1B22" stroke-linecap="round" stroke-linejoin="round"/>
<path id="Vector_2" d="M3.08637 5.72021H14.9136C15.2144 5.72018 15.5117 5.78519 15.785 5.91078C16.0583 6.03638 16.3012 6.21959 16.4971 6.44786C16.6929 6.67612 16.8371 6.94405 16.9197 7.23326C17.0024 7.52248 17.0215 7.82614 16.9758 8.12343L15.6667 16.6265C15.5531 17.3654 15.1786 18.0392 14.6111 18.526C14.0436 19.0127 13.3206 19.2802 12.573 19.28H5.42595C4.6785 19.28 3.95574 19.0124 3.38847 18.5257C2.8212 18.0389 2.44689 17.3652 2.33328 16.6265L1.02424 8.12343C0.978521 7.82614 0.99763 7.52248 1.08026 7.23326C1.16289 6.94405 1.30708 6.67612 1.50295 6.44786C1.69882 6.21959 1.94173 6.03638 2.21504 5.91078C2.48835 5.78519 2.78559 5.72018 3.08637 5.72021Z" stroke="#1A1B22" stroke-linecap="round" stroke-linejoin="round"/>
</g>
</svg>
