<?xml version="1.0" encoding="utf-8"?>
<!-- Svg Vector Icons : http://www.onlinewebfonts.com/icon -->
<!DOCTYPE svg PUBLIC "-//W3C//DTD SVG 1.1//EN" "http://www.w3.org/Graphics/SVG/1.1/DTD/svg11.dtd">
<svg version="1.1" xmlns="http://www.w3.org/2000/svg" xmlns:xlink="http://www.w3.org/1999/xlink" x="0px" y="0px" viewBox="0 0 256 256" enable-background="new 0 0 256 256" xml:space="preserve">
<metadata> Svg Vector Icons : http://www.onlinewebfonts.com/icon </metadata>
<g><g><path fill="#000000" d="M125,206.3c54.2,0,98.2-43.9,98.2-98.2S179.2,10,125,10c-54.2,0-98.2,43.9-98.2,98.2S70.8,206.3,125,206.3L125,206.3z M125,194.3c-47.6,0-86.1-38.6-86.1-86.1C38.8,60.5,77.4,22,125,22c47.6,0,86.1,38.6,86.1,86.1C211.1,155.7,172.6,194.3,125,194.3L125,194.3z"/><path fill="#000000" d="M176.3,195.8l34.9,46.2c3.3,4.4,9.6,5.3,14,2c4.4-3.3,5.3-9.6,2-14l-34.9-46.2c-3.3-4.4-9.6-5.3-14-2C173.8,185.1,172.9,191.4,176.3,195.8L176.3,195.8z"/><path fill="#000000" d="M141,77.7c0,4.4,3.6,8,8,8c4.4,0,8-3.6,8-8c0-4.4-3.6-8-8-8C144.6,69.7,141,73.3,141,77.7L141,77.7z"/><path fill="#000000" d="M80.9,113.8c0,4.4,3.6,8,8,8s8-3.6,8-8s-3.6-8-8-8S80.9,109.4,80.9,113.8z"/><path fill="#000000" d="M138.2,158.8c0-0.5,0.3-1.5,0.8-2.9c0.8-2.4,2.1-4.8,3.9-7c5.2-6.5,13.7-10.4,26.6-10.4c2.2,0,4-1.8,4-4c0-2.2-1.8-4-4-4c-15.3,0-26.1,5-32.9,13.4c-4.1,5.1-5.9,10.3-6.4,13.9c-0.3,2.2,1.3,4.2,3.5,4.5C135.9,162.5,137.9,161,138.2,158.8L138.2,158.8z"/></g></g>
</svg>