<svg width="26" height="15" viewBox="0 0 26 15" fill="none" xmlns="http://www.w3.org/2000/svg">
<path d="M17.0037 13.9847L9.32018 0.694876C8.99461 0.131195 8.52434 -0.042245 7.98171 0.00834178C7.53314 0.0661552 6.94711 0.290182 6.39002 0.615383C4.61745 1.64157 3.90842 3.25312 2.2082 4.22872C1.47023 4.6551 0.811846 4.82131 0.486272 5.0092C0.0521734 5.26214 -0.143171 5.70297 0.117288 6.15102L3.02575 11.1808C3.35132 11.7445 3.8216 11.9107 4.36422 11.8601C4.81279 11.8167 5.39882 11.5783 5.95592 11.2531C7.72849 10.2269 8.43752 8.62255 10.1305 7.63972C10.6514 7.34342 11.1289 7.17721 11.44 7.05436L15.8389 14.6568C16.0198 14.982 16.4322 15.0977 16.7577 14.9098C17.0761 14.7219 17.1918 14.3027 17.0037 13.9847ZM13.5309 6.14379L14.3123 7.49518L14.5583 7.05436C14.8766 7.17721 15.3469 7.34342 15.8678 7.63972C17.5608 8.62255 18.2699 10.2269 20.0497 11.2531C20.5995 11.5783 21.1856 11.8167 21.6341 11.8601C22.1767 11.9107 22.6543 11.7445 22.9798 11.1808L25.8811 6.15102C26.1415 5.70297 25.9534 5.26214 25.5193 5.0092C25.1865 4.82131 24.5281 4.6551 23.7901 4.22872C22.0972 3.25312 21.3881 1.64157 19.6083 0.615383C19.0585 0.290182 18.4724 0.0661552 18.0166 0.00834178C17.474 -0.042245 17.011 0.131195 16.6782 0.694876L13.5309 6.14379ZM12.4746 10.6677L11.6933 9.31631L8.99461 13.9847C8.81374 14.3027 8.92226 14.7219 9.24783 14.9098C9.57341 15.0977 9.97857 14.982 10.1667 14.6568L12.4746 10.6677Z" fill="white"/>
</svg>
