<svg width="18" height="20" viewBox="0 0 18 20" fill="none" xmlns="http://www.w3.org/2000/svg">
<path d="M5.87085 5.72009V2.59509C5.87085 2.09781 6.20053 1.6209 6.78737 1.26927C7.3742 0.917637 8.17012 0.720093 9.00003 0.720093C9.82994 0.720093 10.6259 0.917637 11.2127 1.26927C11.7995 1.6209 12.1292 2.09781 12.1292 2.59509V5.72009" stroke="#1A1B22" stroke-linecap="round" stroke-linejoin="round"/>
<path d="M3.08637 5.72009H14.9136C15.2144 5.72006 15.5117 5.78506 15.785 5.91066C16.0583 6.03626 16.3012 6.21947 16.4971 6.44774C16.6929 6.676 16.8371 6.94393 16.9197 7.23314C17.0024 7.52235 17.0215 7.82601 16.9758 8.1233L15.6667 16.6263C15.5531 17.3653 15.1786 18.0391 14.6111 18.5259C14.0436 19.0126 13.3206 19.2801 12.573 19.2799H5.42595C4.6785 19.2798 3.95574 19.0123 3.38847 18.5255C2.8212 18.0388 2.44689 17.3651 2.33328 16.6263L1.02424 8.1233C0.978521 7.82601 0.99763 7.52235 1.08026 7.23314C1.16289 6.94393 1.30708 6.676 1.50295 6.44774C1.69882 6.21947 1.94173 6.03626 2.21504 5.91066C2.48835 5.78506 2.78559 5.72006 3.08637 5.72009Z" stroke="#1A1B22" stroke-linecap="round" stroke-linejoin="round"/>
</svg>
