<svg width="16" height="20" viewBox="0 0 16 20" fill="none" xmlns="http://www.w3.org/2000/svg">
<g id="Group 1">
<path id="Vector" d="M4.87085 6V2.875C4.87085 2.37772 5.20053 1.90081 5.78737 1.54917C6.3742 1.19754 7.17012 1 8.00003 1C8.82994 1 9.62586 1.19754 10.2127 1.54917C10.7995 1.90081 11.1292 2.37772 11.1292 2.875V6" stroke="#1A1B22" stroke-linecap="round" stroke-linejoin="round"/>
<path id="Vector_2" d="M2.08637 6H13.9136C14.2144 5.99996 14.5117 6.06497 14.785 6.19057C15.0583 6.31616 15.3012 6.49937 15.4971 6.72764C15.6929 6.95591 15.8371 7.22384 15.9197 7.51305C16.0024 7.80226 16.0215 8.10592 15.9758 8.40321L14.6667 16.9062C14.5531 17.6452 14.1786 18.319 13.6111 18.8058C13.0436 19.2925 12.3206 19.56 11.573 19.5598H4.42595C3.6785 19.5597 2.95574 19.2922 2.38847 18.8054C1.8212 18.3187 1.44689 17.645 1.33328 16.9062L0.0242398 8.40321C-0.0214795 8.10592 -0.00237016 7.80226 0.0802576 7.51305C0.162885 7.22384 0.307077 6.95591 0.502947 6.72764C0.698818 6.49937 0.941734 6.31616 1.21504 6.19057C1.48835 6.06497 1.78559 5.99996 2.08637 6Z" fill="#1A1B22"/>
</g>
</svg>
