<svg width="30" height="30" viewBox="0 0 30 30" fill="none" xmlns="http://www.w3.org/2000/svg">
<path d="M19.0037 20.9847L11.3202 7.69488C10.9946 7.1312 10.5243 6.95776 9.98171 7.00834C9.53314 7.06616 8.94711 7.29018 8.39002 7.61538C6.61745 8.64157 5.90842 10.2531 4.2082 11.2287C3.47023 11.6551 2.81185 11.8213 2.48627 12.0092C2.05217 12.2621 1.85683 12.703 2.11729 13.151L5.02575 18.1808C5.35132 18.7445 5.8216 18.9107 6.36422 18.8601C6.81279 18.8167 7.39882 18.5783 7.95592 18.2531C9.72849 17.2269 10.4375 15.6225 12.1305 14.6397C12.6514 14.3434 13.1289 14.1772 13.44 14.0544L17.8389 21.6568C18.0198 21.982 18.4322 22.0977 18.7577 21.9098C19.0761 21.7219 19.1918 21.3027 19.0037 20.9847ZM15.5309 13.1438L16.3123 14.4952L16.5583 14.0544C16.8766 14.1772 17.3469 14.3434 17.8678 14.6397C19.5608 15.6225 20.2699 17.2269 22.0497 18.2531C22.5995 18.5783 23.1856 18.8167 23.6341 18.8601C24.1767 18.9107 24.6543 18.7445 24.9798 18.1808L27.8811 13.151C28.1415 12.703 27.9534 12.2621 27.5193 12.0092C27.1865 11.8213 26.5281 11.6551 25.7901 11.2287C24.0972 10.2531 23.3881 8.64157 21.6083 7.61538C21.0585 7.29018 20.4724 7.06616 20.0166 7.00834C19.474 6.95776 19.011 7.1312 18.6782 7.69488L15.5309 13.1438ZM14.4746 17.6677L13.6933 16.3163L10.9946 20.9847C10.8137 21.3027 10.9223 21.7219 11.2478 21.9098C11.5734 22.0977 11.9786 21.982 12.1667 21.6568L14.4746 17.6677Z" fill="#1A1B22"/>
</svg>
