<svg width="27" height="27" viewBox="0 0 27 27" fill="none" xmlns="http://www.w3.org/2000/svg">
<path d="M25.0913 3.92133L26.0801 2.87983C26.5811 2.35248 26.6206 1.62738 26.1196 1.12641L25.7769 0.77045C25.3286 0.322208 24.5771 0.388126 24.0894 0.875919L23.061 1.87787L25.0913 3.92133ZM9.48193 17.9487L12.1846 16.8149L24.1289 4.87055L22.0986 2.85346L10.1543 14.811L8.96777 17.4213C8.83594 17.7246 9.17871 18.0673 9.48193 17.9487ZM4.47217 26.7949H19.8311C22.3623 26.7949 23.852 25.3183 23.852 22.497V8.57514L21.2153 11.1987V22.2597C21.2153 23.5253 20.543 24.1581 19.6597 24.1581H4.64355C3.43066 24.1581 2.77148 23.5253 2.77148 22.2597V7.61274C2.77148 6.34711 3.43066 5.7143 4.64355 5.7143H15.8364L18.46 3.07758H4.47217C1.62451 3.07758 0.134766 4.55414 0.134766 7.37543V22.497C0.134766 25.3183 1.62451 26.7949 4.47217 26.7949Z" fill="#1A1B22"/>
</svg>
