<svg width="40" height="40" viewBox="0 0 40 40" fill="none" xmlns="http://www.w3.org/2000/svg">
<path d="M16.8708 15.7202V12.5952C16.8708 12.0979 17.2005 11.621 17.7874 11.2694C18.3742 10.9178 19.1701 10.7202 20 10.7202C20.8299 10.7202 21.6259 10.9178 22.2127 11.2694C22.7995 11.621 23.1292 12.0979 23.1292 12.5952V15.7202" stroke="#1A1B22" stroke-linecap="round" stroke-linejoin="round"/>
<path d="M14.0864 15.7202H25.9136C26.2144 15.7202 26.5117 15.7852 26.785 15.9108C27.0583 16.0364 27.3012 16.2196 27.4971 16.4479C27.6929 16.6761 27.8371 16.9441 27.9197 17.2333C28.0024 17.5225 28.0215 17.8261 27.9758 18.1234L26.6667 26.6265C26.5531 27.3654 26.1786 28.0392 25.6111 28.526C25.0436 29.0127 24.3206 29.2802 23.573 29.28H16.426C15.6785 29.28 14.9557 29.0124 14.3885 28.5257C13.8212 28.0389 13.4469 27.3652 13.3333 26.6265L12.0242 18.1234C11.9785 17.8261 11.9976 17.5225 12.0803 17.2333C12.1629 16.9441 12.3071 16.6761 12.5029 16.4479C12.6988 16.2196 12.9417 16.0364 13.215 15.9108C13.4883 15.7852 13.7856 15.7202 14.0864 15.7202Z" stroke="#1A1B22" stroke-linecap="round" stroke-linejoin="round"/>
</svg>
